PathFileType	4	(X/Y/Z)	Run_400 05
DataRate	CameraRate	NumFrames	NumMarkers	Units	OrigDataRate	OrigDataStartFrame	OrigNumFrames
120	120	4	42	mm	120	238	128
Frame#	Time	LASI			RASI			LPSI			RPSI			RTH1			RTH2			RTH3			LTH1			LTH2			LTH3			RTB1			RTB2			RTB3			LTB1			LTB2			LTB3			RCAL			RTOE			RMT5			LCAL			LTOE			LMT5			LACR			RACR			CLAV			C7			RUA1			RUA2			RUA3			RLEL			RMEL			LUA1			LUA2			LUA3			LLEL			LMEL			RFAsuperior			RFAradius			RFAulna			LFAsuperior			LFAradius			LFAulna		
		X1	Y1	Z1	X2	Y2	Z2	X3	Y3	Z3	X4	Y4	Z4	X5	Y5	Z5	X6	Y6	Z6	X7	Y7	Z7	X8	Y8	Z8	X9	Y9	Z9	X10	Y10	Z10	X11	Y11	Z11	X12	Y12	Z12	X13	Y13	Z13	X14	Y14	Z14	X15	Y15	Z15	X16	Y16	Z16	X17	Y17	Z17	X18	Y18	Z18	X19	Y19	Z19	X20	Y20	Z20	X21	Y21	Z21	X22	Y22	Z22	X23	Y23	Z23	X24	Y24	Z24	X25	Y25	Z25	X26	Y26	Z26	X27	Y27	Z27	X28	Y28	Z28	X29	Y29	Z29	X30	Y30	Z30	X31	Y31	Z31	X32	Y32	Z32	X33	Y33	Z33	X34	Y34	Z34	X35	Y35	Z35	X36	Y36	Z36	X37	Y37	Z37	X38	Y38	Z38	X39	Y39	Z39	X40	Y40	Z40	X41	Y41	Z41	X42	Y42	Z42	

238	  1.983333	985.408865	1034.895788	-444.195627	993.590607	1001.481732	-178.749636	805.794009	1052.647550	-339.182041	808.680406	1039.936628	-259.798987	929.588157	822.135222	-150.417823	975.643522	715.471855	-162.715614	906.693440	609.103647	-203.316319	976.051408	832.766388	-496.814183	1079.736577	746.280415	-483.529603	1065.875042	617.896468	-455.544027	828.987648	452.283829	-283.750300	768.078823	495.438951	-219.116500	716.218932	412.980621	-293.227534	1135.075590	399.375205	-376.387987	1089.494651	318.356073	-424.498485	1062.342001	211.970057	-351.243041	558.825318	662.488033	-312.878824	457.461535	452.245487	-292.433924	459.652124	535.898750	-215.191034	908.103949	103.143599	-339.107296	1142.009684	 72.881750	-315.236455	1071.078110	 54.535296	-408.972016	1012.886426	1459.114512	-513.724887	1040.538170	1494.915346	-168.676590	1073.613679	1421.576403	-307.003476	948.039065	1518.040699	-334.447817	1005.621033	1396.074538	-85.604139	976.260630	1309.395309	-86.325387	911.978614	1330.000153	-43.172450	859.603549	1209.246792	  8.938414	817.146777	1204.714208	-64.177840	990.060225	1370.591828	-590.772562	993.555459	1296.738049	-586.949542	898.465292	1296.290892	-602.282336	882.845006	1144.111320	-674.159187	827.567338	1132.755872	-603.877715	953.515212	1154.973964	-14.117121	1070.015065	1087.172451	-132.778771	1061.872387	1046.015880	-73.145153	971.114900	1122.269441	-641.866911	1098.316549	1110.084763	-509.282975	1095.548659	1044.436102	-540.066136	
239	  1.991667	984.221280	1032.972814	-445.765766	991.068168	998.803304	-179.506901	804.366411	1050.980995	-339.189754	806.676556	1037.607030	-260.122120	932.632251	819.055431	-150.938399	987.773701	714.501191	-162.489925	924.521145	604.971386	-200.983007	970.952803	828.193947	-497.320139	1070.777071	736.948043	-483.654474	1051.972561	609.378683	-453.192504	855.472949	450.121958	-282.132413	794.964300	492.474009	-216.501585	743.278212	409.848364	-290.498027	1116.361911	390.121032	-376.839554	1066.662966	310.592250	-423.551657	1034.484182	206.615405	-350.087268	581.289263	658.465214	-307.873321	486.805080	444.983207	-289.283708	488.008782	527.213327	-210.498219	875.693154	103.938150	-338.208363	1109.117124	 71.649396	-315.136208	1037.848726	 54.335059	-408.749924	1015.291642	1453.784502	-513.588799	1038.385547	1491.700741	-168.494185	1072.911034	1417.996662	-306.172482	947.928475	1515.177134	-335.173697	1001.673061	1392.832669	-86.298833	970.374870	1305.923787	-89.397965	906.527456	1326.403389	-45.841767	850.270806	1206.000833	  4.233569	811.133823	1202.000452	-70.331672	994.589061	1363.955340	-589.388914	1001.591752	1289.738722	-584.842947	907.097375	1287.976896	-602.904693	898.292597	1134.785074	-675.113897	840.603527	1121.897236	-607.355978	942.630810	1146.518051	-13.875422	1058.718012	1067.279127	-123.912619	1046.745964	1029.575365	-63.058575	986.853396	1115.334705	-638.528870	1110.145615	1102.378203	-506.624470	1108.653626	1036.728210	-538.172826	
240	  2.000000	982.718295	1030.901720	-446.914451	988.892666	997.016066	-181.289764	802.874735	1050.603808	-340.371038	804.853231	1036.141622	-261.427620	935.647329	816.663450	-151.671473	1000.235057	715.380375	-162.262268	943.342585	602.638901	-198.615649	965.552942	824.649984	-498.074349	1061.959997	727.084125	-483.573717	1038.232578	601.909129	-451.787628	882.580260	448.945229	-280.391689	821.877669	489.563662	-214.015046	770.361027	406.772293	-287.896536	1095.951816	382.239262	-377.173535	1042.825597	304.419890	-422.909285	1006.105474	202.730235	-349.408285	602.365504	652.214823	-302.636530	516.838025	434.819106	-287.174212	515.640119	515.548919	-206.560600	843.086659	104.950063	-337.385396	1075.806403	 71.017930	-315.017134	1004.449630	 54.394583	-408.455712	1018.682130	1449.438358	-513.043855	1035.848524	1489.225288	-167.997840	1072.234111	1415.075540	-304.900282	947.403616	1512.653981	-335.899184	996.597147	1390.882317	-86.600266	964.619197	1303.756706	-91.440604	900.654471	1324.165535	-48.257837	840.392298	1204.287831	 -0.229544	804.680621	1200.876432	-76.345860	999.080684	1358.717401	-587.577353	1009.339699	1284.647623	-582.947120	915.229488	1281.520801	-601.515112	913.377202	1127.522932	-674.904417	853.704463	1112.944423	-610.089611	931.221047	1140.735312	-13.694965	1046.303114	1050.579912	-115.334564	1030.084359	1016.195924	-53.620161	1002.821240	1111.473573	-634.109046	1122.300330	1098.088645	-503.724458	1121.960739	1032.277479	-535.314462	
241	  2.008333	980.824923	1028.975947	-447.931694	987.045520	996.080352	-183.637221	801.342058	1051.147717	-342.158085	803.225789	1035.495242	-263.225583	938.883166	815.354593	-152.416084	1012.671538	718.498505	-161.995341	962.610524	602.657341	-196.405645	959.758750	822.334901	-498.990844	1053.079083	718.832749	-483.635371	1025.138554	596.277484	-452.138633	910.031540	449.215674	-278.641717	848.549280	486.879605	-211.715492	797.206285	403.919023	-285.481594	1074.161579	376.022421	-377.299471	1018.485931	300.052868	-422.687883	977.579606	200.212029	-349.342167	622.029936	643.579531	-297.404410	547.181236	422.015540	-285.971252	542.354236	501.166085	-203.489832	810.508152	106.212070	-336.723815	1042.497343	 70.475569	-314.906334	971.005149	 54.531640	-408.252895	1022.721402	1446.511480	-512.361048	1032.714609	1487.471462	-166.961433	1071.597068	1412.890200	-303.094864	946.815970	1510.754282	-336.696302	990.333817	1389.908371	-86.363075	958.579344	1302.798844	-91.972032	893.793637	1323.427889	-50.349477	829.514387	1204.604518	 -4.168106	796.569259	1201.665547	-81.584214	1004.135494	1354.668638	-585.654791	1016.425746	1281.335271	-581.189860	922.462214	1276.462083	-598.888529	927.224601	1122.338010	-673.929288	866.149080	1106.050717	-611.653895	918.887929	1137.968187	-13.253384	1032.751438	1038.320027	-107.332428	1012.136844	1006.685211	-45.316348	1017.425807	1109.667162	-630.096149	1134.067044	1097.538216	-500.434910	1135.094312	1031.503906	-531.450895	
